<?xml version="1.0" encoding="UTF-8"?>
<svg id="Calque_1" data-name="Calque 1" xmlns="http://www.w3.org/2000/svg" viewBox="0 0 1268 322">
  <defs>
    <style>
      .cls-1 {
        fill: #281c43;
      }

      .cls-2 {
        fill: #e74b1d;
      }
    </style>
  </defs>
  <rect class="cls-1" x="1042.3" y="130.91" width="30.15" height="134.21"/>
  <rect class="cls-2" x="1042.3" y="80.61" width="30.15" height="31.34"/>
  <path class="cls-1" d="M796.21,125.94v27.01c-1.97-.21-3.94-.31-5.86-.31-11.85.08-20.77,2.86-26.48,8.3l-.13.11c-2.9,2.59-5.2,6.06-6.84,10.32-1.71,4.46-2.58,10.25-2.58,17.24v70.83h-27.89V127.3h27.89v7.14c3.29-1.9,6.78-3.48,10.44-4.72,7.41-2.51,14.96-3.83,22.44-3.92h6.21c.77,0,1.69.04,2.79.14Z"/>
  <path class="cls-1" d="M389.98,124.59v79.09c0,4.46-.73,8.27-2.17,11.31-1.47,3.1-3.46,5.66-6.11,7.86-5.95,4.99-13.56,7.41-23.28,7.41s-17.39-2.41-23.37-7.49c-2.67-2.16-4.68-4.7-6.14-7.78-1.44-3.04-2.17-6.85-2.17-11.31v-79.09h-30.02v79.09c0,8.63,1.73,16.68,5.14,23.93,3.4,7.22,8.06,13.38,13.96,18.41,5.69,4.67,12.32,8.28,19.69,10.73,7.27,2.43,14.98,3.66,22.91,3.66s15.51-1.23,22.79-3.66c7.37-2.46,13.99-6.06,19.8-10.82,5.79-4.94,10.45-11.11,13.85-18.32,3.41-7.25,5.14-15.3,5.14-23.93v-79.09h-30.02Z"/>
  <path class="cls-1" d="M534.87,124.59v8.71c-3.49-2.13-7.07-3.92-10.73-5.37-16.78-6.56-35.39-6.48-51.53-.33-8.17,3.11-15.43,7.75-21.49,13.73-6.25,5.97-11.18,13.38-14.65,22.03-3.43,8.54-5.16,18.05-5.16,28.27s1.74,19.73,5.16,28.27c3.46,8.63,8.38,16.07,14.61,22.12,6.12,5.94,13.36,10.54,21.5,13.69,8.06,3.12,16.65,4.7,25.52,4.7,13.05,0,25.36-3.41,36.75-10.16l.14,8.55h30.03V124.59h-30.15ZM498.1,230.02c-10.68,0-19.13-3.2-25.91-9.83-3.23-3.1-5.81-6.97-7.65-11.53-1.88-4.64-2.84-10.36-2.84-17.03s.95-12.27,2.84-16.9c1.86-4.57,4.45-8.51,7.68-11.68,6.72-6.51,15.19-9.68,25.88-9.68s19.2,3.17,26,9.68c3.25,3.19,5.83,7.12,7.69,11.68,1.88,4.64,2.84,10.32,2.84,16.9s-.95,12.39-2.84,17.03c-1.85,4.55-4.42,8.43-7.68,11.56-6.81,6.6-15.31,9.8-26,9.8Z"/>
  <path class="cls-1" d="M681.11,61.76v71.41c-3.51-2.21-7.26-4.07-11.23-5.57-16.19-6.12-34.91-6.13-51.02,0-8.15,3.1-15.44,7.73-21.69,13.8-6.13,6.04-10.99,13.45-14.45,22.01-3.43,8.51-5.17,18-5.17,28.22s1.74,19.73,5.16,28.27c3.46,8.62,8.32,16.05,14.53,22.16,6.2,5.93,13.46,10.51,21.58,13.65,8.06,3.12,16.65,4.7,25.52,4.7s17.46-1.58,25.57-4.69c3.96-1.52,7.7-3.38,11.2-5.58v8.66h30.15V61.76h-30.15ZM680.86,191.63c0,6.66-.95,12.39-2.84,17.03-1.85,4.55-4.42,8.43-7.68,11.56-6.81,6.6-15.31,9.8-26,9.8s-19.13-3.2-25.91-9.83c-3.24-3.11-5.85-7-7.73-11.57-1.91-4.62-2.88-10.33-2.88-16.98s.97-12.24,2.88-16.86c1.9-4.59,4.52-8.54,7.76-11.72,6.72-6.51,15.19-9.68,25.88-9.68s19.2,3.17,26,9.68c3.25,3.19,5.83,7.12,7.69,11.68,1.88,4.64,2.84,10.32,2.84,16.9Z"/>
  <path class="cls-1" d="M902.41,127.75v8.68c-3.52-2.14-7.1-3.9-10.75-5.34-16.79-6.54-35.4-6.48-51.49-.31-4.21,1.57-8.11,3.58-11.82,5.91-3.52,2.26-6.73,4.9-9.68,7.8-5.41,5.16-9.81,11.38-13.14,18.55-.57,1.13-1.01,2.26-1.51,3.46-3.46,8.55-5.16,18.11-5.16,28.29s1.7,19.74,5.16,28.29c3.46,8.61,8.36,16.03,14.59,22.13,6.16,5.91,13.39,10.5,21.5,13.64,8.05,3.14,16.66,4.72,25.53,4.72,13.08,0,25.34-3.4,36.72-10.19l.19,8.55h29.99V127.75h-30.12ZM899.33,211.81c-1.89,4.53-4.46,8.43-7.67,11.57-6.85,6.6-15.34,9.81-26.03,9.81s-19.11-3.21-25.9-9.87c-3.21-3.08-5.78-6.98-7.67-11.51-1.89-4.65-2.83-10.37-2.83-17.04s.94-12.26,2.83-16.91c1.89-4.59,4.46-8.49,7.67-11.69,6.73-6.48,15.22-9.62,25.9-9.62s19.18,3.14,26.03,9.62c3.21,3.21,5.78,7.17,7.67,11.69,1.89,4.65,2.83,10.31,2.83,16.91s-.94,12.39-2.83,17.04Z"/>
  <path class="cls-1" d="M1090.35,221.72h31.78c1.94,6,5.96,10.9,12.06,14.7,6.09,3.8,14.07,5.69,23.97,5.69,6.7,0,11.92-.62,15.63-1.85,3.71-1.23,6.26-3.05,7.68-5.43,1.41-2.38,2.12-5.07,2.12-8.08,0-3.71-1.15-6.58-3.45-8.61-2.29-2.03-5.83-3.66-10.59-4.9-4.77-1.24-10.86-2.39-18.28-3.44-7.41-1.23-14.56-2.73-21.45-4.5-6.88-1.76-12.97-4.11-18.27-7.02-5.29-2.91-9.49-6.62-12.58-11.12-3.09-4.5-4.63-10.02-4.63-16.55s1.54-12.01,4.63-16.95c3.09-4.94,7.41-9.09,12.97-12.45,5.56-3.36,12.09-5.92,19.6-7.68,7.5-1.76,15.58-2.65,24.23-2.65,13.06,0,23.92,1.9,32.57,5.69,8.65,3.8,15.14,9.1,19.47,15.89,4.32,6.8,6.49,14.61,6.49,23.44h-30.45c-1.42-6.53-4.24-11.26-8.48-14.17-4.24-2.91-10.77-4.37-19.6-4.37s-15.19,1.33-19.6,3.97c-4.42,2.65-6.62,6.27-6.62,10.86,0,3.71,1.37,6.58,4.11,8.61,2.74,2.03,6.8,3.67,12.18,4.9,5.38,1.24,12.13,2.56,20.26,3.97,6.88,1.42,13.46,3,19.73,4.77,6.26,1.77,11.88,4.02,16.82,6.75,4.94,2.74,8.87,6.35,11.78,10.86,2.92,4.5,4.38,10.19,4.38,17.08,0,8.48-2.44,15.63-7.28,21.45-4.86,5.83-11.79,10.29-20.79,13.37-9,3.09-19.78,4.64-32.31,4.64-11.13,0-20.71-1.19-28.74-3.58-8.04-2.38-14.7-5.47-19.99-9.27-5.29-3.79-9.4-7.86-12.31-12.18-2.92-4.32-4.9-8.43-5.96-12.31-1.06-3.88-1.42-7.06-1.06-9.53Z"/>
  <g>
    <path class="cls-2" d="M285.44,270.22h-59.33l-2.24-3.72-13.03-21.64-2.12-3.52-.17-.28-15.22-21.83,42.23-1.41c8.22-.28,16.02,3.64,20.71,10.4l1.32,1.9,2.45,3.53,25.4,36.59Z"/>
    <path class="cls-1" d="M285.44,160.19c0,22.82-7.68,43.99-20.79,61.45l-1.83-2.63-3.23-4.66c-3.51-5.06-9.28-8.08-15.44-8.08h-14.55c8.36-13.1,13.25-28.98,13.25-46.08,0-44.98-33.81-81.45-75.51-81.45s-75.51,36.47-75.51,81.45c0,32.68,17.83,60.85,43.58,73.83,8.54,4.31,17.96,6.94,27.89,7.5l14.48-11.29,13.03-10.15h0c1.86-1.45,4.56-.95,5.77,1.07l11.98,19.9.16.28-16.22,25.33h0c-1.27,2.2-3.62,3.56-6.16,3.56h-19.01c-1.8,0-3.6-.05-5.38-.16-8.68-.51-17.11-2.26-25.2-5.12-.8-.2-1.59-.4-2.39-.61-8.44-2.24-16.47-5.32-24.02-9.14-36.45-18.46-61.14-54.08-61.14-94.98,0-59.88,52.88-108.41,118.12-108.41s118.11,48.54,118.11,108.41Z"/>
  </g>
  <path class="cls-1" d="M1029.69,127.21h-30.02v-34.2h-31.4v34.2h-22.35v30.7h22.35v66.11c0,.63.01,1.25.04,1.87v39.2h31.52v-107.18h29.86v-30.7Z"/>
</svg>